<?xml version="1.0" encoding="utf-8" standalone="no"?>
<!DOCTYPE svg PUBLIC "-//W3C//DTD SVG 1.1//EN"
  "http://www.w3.org/Graphics/SVG/1.1/DTD/svg11.dtd">
<svg xmlns:xlink="http://www.w3.org/1999/xlink" width="360pt" height="360pt" viewBox="0 0 360 360" xmlns="http://www.w3.org/2000/svg" version="1.1">
 <metadata>
  <rdf:RDF xmlns:dc="http://purl.org/dc/elements/1.1/" xmlns:cc="http://creativecommons.org/ns#" xmlns:rdf="http://www.w3.org/1999/02/22-rdf-syntax-ns#">
   <cc:Work>
    <dc:type rdf:resource="http://purl.org/dc/dcmitype/StillImage"/>
    <dc:date>2025-06-18T17:52:00.374445</dc:date>
    <dc:format>image/svg+xml</dc:format>
    <dc:creator>
     <cc:Agent>
      <dc:title>Matplotlib v3.9.2, https://matplotlib.org/</dc:title>
     </cc:Agent>
    </dc:creator>
   </cc:Work>
  </rdf:RDF>
 </metadata>
 <defs>
  <style type="text/css">*{stroke-linejoin: round; stroke-linecap: butt}</style>
 </defs>
 <g id="figure_1">
  <g id="patch_1">
   <path d="M 0 360 
L 360 360 
L 360 0 
L 0 0 
z
" style="fill: #ffffff"/>
  </g>
  <g id="axes_1">
   <g id="patch_2">
    <path d="M 45 320.4 
L 324 320.4 
L 324 43.2 
L 45 43.2 
z
" style="fill: #ffffff"/>
   </g>
   <g id="matplotlib.axis_1">
    <g id="xtick_1">
     <g id="line2d_1">
      <defs>
       <path id="m3f56eb87bc" d="M 0 0 
L 0 3.5 
" style="stroke: #000000; stroke-width: 0.8"/>
      </defs>
      <g>
       <use xlink:href="#m3f56eb87bc" x="45" y="320.4" style="stroke: #000000; stroke-width: 0.8"/>
      </g>
     </g>
     <g id="text_1">
      <!-- 0.0 -->
      <g transform="translate(35.458125 336.518125) scale(0.12 -0.12)">
       <defs>
        <path id="DejaVuSans-30" d="M 2034 4250 
Q 1547 4250 1301 3770 
Q 1056 3291 1056 2328 
Q 1056 1369 1301 889 
Q 1547 409 2034 409 
Q 2525 409 2770 889 
Q 3016 1369 3016 2328 
Q 3016 3291 2770 3770 
Q 2525 4250 2034 4250 
z
M 2034 4750 
Q 2819 4750 3233 4129 
Q 3647 3509 3647 2328 
Q 3647 1150 3233 529 
Q 2819 -91 2034 -91 
Q 1250 -91 836 529 
Q 422 1150 422 2328 
Q 422 3509 836 4129 
Q 1250 4750 2034 4750 
z
" transform="scale(0.015625)"/>
        <path id="DejaVuSans-2e" d="M 684 794 
L 1344 794 
L 1344 0 
L 684 0 
L 684 794 
z
" transform="scale(0.015625)"/>
       </defs>
       <use xlink:href="#DejaVuSans-30"/>
       <use xlink:href="#DejaVuSans-2e" x="63.623047"/>
       <use xlink:href="#DejaVuSans-30" x="95.410156"/>
      </g>
     </g>
    </g>
    <g id="xtick_2">
     <g id="line2d_2">
      <g>
       <use xlink:href="#m3f56eb87bc" x="100.8" y="320.4" style="stroke: #000000; stroke-width: 0.8"/>
      </g>
     </g>
     <g id="text_2">
      <!-- 0.2 -->
      <g transform="translate(91.258125 336.518125) scale(0.12 -0.12)">
       <defs>
        <path id="DejaVuSans-32" d="M 1228 531 
L 3431 531 
L 3431 0 
L 469 0 
L 469 531 
Q 828 903 1448 1529 
Q 2069 2156 2228 2338 
Q 2531 2678 2651 2914 
Q 2772 3150 2772 3378 
Q 2772 3750 2511 3984 
Q 2250 4219 1831 4219 
Q 1534 4219 1204 4116 
Q 875 4013 500 3803 
L 500 4441 
Q 881 4594 1212 4672 
Q 1544 4750 1819 4750 
Q 2544 4750 2975 4387 
Q 3406 4025 3406 3419 
Q 3406 3131 3298 2873 
Q 3191 2616 2906 2266 
Q 2828 2175 2409 1742 
Q 1991 1309 1228 531 
z
" transform="scale(0.015625)"/>
       </defs>
       <use xlink:href="#DejaVuSans-30"/>
       <use xlink:href="#DejaVuSans-2e" x="63.623047"/>
       <use xlink:href="#DejaVuSans-32" x="95.410156"/>
      </g>
     </g>
    </g>
    <g id="xtick_3">
     <g id="line2d_3">
      <g>
       <use xlink:href="#m3f56eb87bc" x="156.6" y="320.4" style="stroke: #000000; stroke-width: 0.8"/>
      </g>
     </g>
     <g id="text_3">
      <!-- 0.4 -->
      <g transform="translate(147.058125 336.518125) scale(0.12 -0.12)">
       <defs>
        <path id="DejaVuSans-34" d="M 2419 4116 
L 825 1625 
L 2419 1625 
L 2419 4116 
z
M 2253 4666 
L 3047 4666 
L 3047 1625 
L 3713 1625 
L 3713 1100 
L 3047 1100 
L 3047 0 
L 2419 0 
L 2419 1100 
L 313 1100 
L 313 1709 
L 2253 4666 
z
" transform="scale(0.015625)"/>
       </defs>
       <use xlink:href="#DejaVuSans-30"/>
       <use xlink:href="#DejaVuSans-2e" x="63.623047"/>
       <use xlink:href="#DejaVuSans-34" x="95.410156"/>
      </g>
     </g>
    </g>
    <g id="xtick_4">
     <g id="line2d_4">
      <g>
       <use xlink:href="#m3f56eb87bc" x="212.4" y="320.4" style="stroke: #000000; stroke-width: 0.8"/>
      </g>
     </g>
     <g id="text_4">
      <!-- 0.6 -->
      <g transform="translate(202.858125 336.518125) scale(0.12 -0.12)">
       <defs>
        <path id="DejaVuSans-36" d="M 2113 2584 
Q 1688 2584 1439 2293 
Q 1191 2003 1191 1497 
Q 1191 994 1439 701 
Q 1688 409 2113 409 
Q 2538 409 2786 701 
Q 3034 994 3034 1497 
Q 3034 2003 2786 2293 
Q 2538 2584 2113 2584 
z
M 3366 4563 
L 3366 3988 
Q 3128 4100 2886 4159 
Q 2644 4219 2406 4219 
Q 1781 4219 1451 3797 
Q 1122 3375 1075 2522 
Q 1259 2794 1537 2939 
Q 1816 3084 2150 3084 
Q 2853 3084 3261 2657 
Q 3669 2231 3669 1497 
Q 3669 778 3244 343 
Q 2819 -91 2113 -91 
Q 1303 -91 875 529 
Q 447 1150 447 2328 
Q 447 3434 972 4092 
Q 1497 4750 2381 4750 
Q 2619 4750 2861 4703 
Q 3103 4656 3366 4563 
z
" transform="scale(0.015625)"/>
       </defs>
       <use xlink:href="#DejaVuSans-30"/>
       <use xlink:href="#DejaVuSans-2e" x="63.623047"/>
       <use xlink:href="#DejaVuSans-36" x="95.410156"/>
      </g>
     </g>
    </g>
    <g id="xtick_5">
     <g id="line2d_5">
      <g>
       <use xlink:href="#m3f56eb87bc" x="268.2" y="320.4" style="stroke: #000000; stroke-width: 0.8"/>
      </g>
     </g>
     <g id="text_5">
      <!-- 0.8 -->
      <g transform="translate(258.658125 336.518125) scale(0.12 -0.12)">
       <defs>
        <path id="DejaVuSans-38" d="M 2034 2216 
Q 1584 2216 1326 1975 
Q 1069 1734 1069 1313 
Q 1069 891 1326 650 
Q 1584 409 2034 409 
Q 2484 409 2743 651 
Q 3003 894 3003 1313 
Q 3003 1734 2745 1975 
Q 2488 2216 2034 2216 
z
M 1403 2484 
Q 997 2584 770 2862 
Q 544 3141 544 3541 
Q 544 4100 942 4425 
Q 1341 4750 2034 4750 
Q 2731 4750 3128 4425 
Q 3525 4100 3525 3541 
Q 3525 3141 3298 2862 
Q 3072 2584 2669 2484 
Q 3125 2378 3379 2068 
Q 3634 1759 3634 1313 
Q 3634 634 3220 271 
Q 2806 -91 2034 -91 
Q 1263 -91 848 271 
Q 434 634 434 1313 
Q 434 1759 690 2068 
Q 947 2378 1403 2484 
z
M 1172 3481 
Q 1172 3119 1398 2916 
Q 1625 2713 2034 2713 
Q 2441 2713 2670 2916 
Q 2900 3119 2900 3481 
Q 2900 3844 2670 4047 
Q 2441 4250 2034 4250 
Q 1625 4250 1398 4047 
Q 1172 3844 1172 3481 
z
" transform="scale(0.015625)"/>
       </defs>
       <use xlink:href="#DejaVuSans-30"/>
       <use xlink:href="#DejaVuSans-2e" x="63.623047"/>
       <use xlink:href="#DejaVuSans-38" x="95.410156"/>
      </g>
     </g>
    </g>
    <g id="xtick_6">
     <g id="line2d_6">
      <g>
       <use xlink:href="#m3f56eb87bc" x="324" y="320.4" style="stroke: #000000; stroke-width: 0.8"/>
      </g>
     </g>
     <g id="text_6">
      <!-- 1.0 -->
      <g transform="translate(314.458125 336.518125) scale(0.12 -0.12)">
       <defs>
        <path id="DejaVuSans-31" d="M 794 531 
L 1825 531 
L 1825 4091 
L 703 3866 
L 703 4441 
L 1819 4666 
L 2450 4666 
L 2450 531 
L 3481 531 
L 3481 0 
L 794 0 
L 794 531 
z
" transform="scale(0.015625)"/>
       </defs>
       <use xlink:href="#DejaVuSans-31"/>
       <use xlink:href="#DejaVuSans-2e" x="63.623047"/>
       <use xlink:href="#DejaVuSans-30" x="95.410156"/>
      </g>
     </g>
    </g>
    <g id="text_7">
     <!-- False Positive Rate -->
     <g transform="translate(128.740313 352.131875) scale(0.12 -0.12)">
      <defs>
       <path id="DejaVuSans-46" d="M 628 4666 
L 3309 4666 
L 3309 4134 
L 1259 4134 
L 1259 2759 
L 3109 2759 
L 3109 2228 
L 1259 2228 
L 1259 0 
L 628 0 
L 628 4666 
z
" transform="scale(0.015625)"/>
       <path id="DejaVuSans-61" d="M 2194 1759 
Q 1497 1759 1228 1600 
Q 959 1441 959 1056 
Q 959 750 1161 570 
Q 1363 391 1709 391 
Q 2188 391 2477 730 
Q 2766 1069 2766 1631 
L 2766 1759 
L 2194 1759 
z
M 3341 1997 
L 3341 0 
L 2766 0 
L 2766 531 
Q 2569 213 2275 61 
Q 1981 -91 1556 -91 
Q 1019 -91 701 211 
Q 384 513 384 1019 
Q 384 1609 779 1909 
Q 1175 2209 1959 2209 
L 2766 2209 
L 2766 2266 
Q 2766 2663 2505 2880 
Q 2244 3097 1772 3097 
Q 1472 3097 1187 3025 
Q 903 2953 641 2809 
L 641 3341 
Q 956 3463 1253 3523 
Q 1550 3584 1831 3584 
Q 2591 3584 2966 3190 
Q 3341 2797 3341 1997 
z
" transform="scale(0.015625)"/>
       <path id="DejaVuSans-6c" d="M 603 4863 
L 1178 4863 
L 1178 0 
L 603 0 
L 603 4863 
z
" transform="scale(0.015625)"/>
       <path id="DejaVuSans-73" d="M 2834 3397 
L 2834 2853 
Q 2591 2978 2328 3040 
Q 2066 3103 1784 3103 
Q 1356 3103 1142 2972 
Q 928 2841 928 2578 
Q 928 2378 1081 2264 
Q 1234 2150 1697 2047 
L 1894 2003 
Q 2506 1872 2764 1633 
Q 3022 1394 3022 966 
Q 3022 478 2636 193 
Q 2250 -91 1575 -91 
Q 1294 -91 989 -36 
Q 684 19 347 128 
L 347 722 
Q 666 556 975 473 
Q 1284 391 1588 391 
Q 1994 391 2212 530 
Q 2431 669 2431 922 
Q 2431 1156 2273 1281 
Q 2116 1406 1581 1522 
L 1381 1569 
Q 847 1681 609 1914 
Q 372 2147 372 2553 
Q 372 3047 722 3315 
Q 1072 3584 1716 3584 
Q 2034 3584 2315 3537 
Q 2597 3491 2834 3397 
z
" transform="scale(0.015625)"/>
       <path id="DejaVuSans-65" d="M 3597 1894 
L 3597 1613 
L 953 1613 
Q 991 1019 1311 708 
Q 1631 397 2203 397 
Q 2534 397 2845 478 
Q 3156 559 3463 722 
L 3463 178 
Q 3153 47 2828 -22 
Q 2503 -91 2169 -91 
Q 1331 -91 842 396 
Q 353 884 353 1716 
Q 353 2575 817 3079 
Q 1281 3584 2069 3584 
Q 2775 3584 3186 3129 
Q 3597 2675 3597 1894 
z
M 3022 2063 
Q 3016 2534 2758 2815 
Q 2500 3097 2075 3097 
Q 1594 3097 1305 2825 
Q 1016 2553 972 2059 
L 3022 2063 
z
" transform="scale(0.015625)"/>
       <path id="DejaVuSans-20" transform="scale(0.015625)"/>
       <path id="DejaVuSans-50" d="M 1259 4147 
L 1259 2394 
L 2053 2394 
Q 2494 2394 2734 2622 
Q 2975 2850 2975 3272 
Q 2975 3691 2734 3919 
Q 2494 4147 2053 4147 
L 1259 4147 
z
M 628 4666 
L 2053 4666 
Q 2838 4666 3239 4311 
Q 3641 3956 3641 3272 
Q 3641 2581 3239 2228 
Q 2838 1875 2053 1875 
L 1259 1875 
L 1259 0 
L 628 0 
L 628 4666 
z
" transform="scale(0.015625)"/>
       <path id="DejaVuSans-6f" d="M 1959 3097 
Q 1497 3097 1228 2736 
Q 959 2375 959 1747 
Q 959 1119 1226 758 
Q 1494 397 1959 397 
Q 2419 397 2687 759 
Q 2956 1122 2956 1747 
Q 2956 2369 2687 2733 
Q 2419 3097 1959 3097 
z
M 1959 3584 
Q 2709 3584 3137 3096 
Q 3566 2609 3566 1747 
Q 3566 888 3137 398 
Q 2709 -91 1959 -91 
Q 1206 -91 779 398 
Q 353 888 353 1747 
Q 353 2609 779 3096 
Q 1206 3584 1959 3584 
z
" transform="scale(0.015625)"/>
       <path id="DejaVuSans-69" d="M 603 3500 
L 1178 3500 
L 1178 0 
L 603 0 
L 603 3500 
z
M 603 4863 
L 1178 4863 
L 1178 4134 
L 603 4134 
L 603 4863 
z
" transform="scale(0.015625)"/>
       <path id="DejaVuSans-74" d="M 1172 4494 
L 1172 3500 
L 2356 3500 
L 2356 3053 
L 1172 3053 
L 1172 1153 
Q 1172 725 1289 603 
Q 1406 481 1766 481 
L 2356 481 
L 2356 0 
L 1766 0 
Q 1100 0 847 248 
Q 594 497 594 1153 
L 594 3053 
L 172 3053 
L 172 3500 
L 594 3500 
L 594 4494 
L 1172 4494 
z
" transform="scale(0.015625)"/>
       <path id="DejaVuSans-76" d="M 191 3500 
L 800 3500 
L 1894 563 
L 2988 3500 
L 3597 3500 
L 2284 0 
L 1503 0 
L 191 3500 
z
" transform="scale(0.015625)"/>
       <path id="DejaVuSans-52" d="M 2841 2188 
Q 3044 2119 3236 1894 
Q 3428 1669 3622 1275 
L 4263 0 
L 3584 0 
L 2988 1197 
Q 2756 1666 2539 1819 
Q 2322 1972 1947 1972 
L 1259 1972 
L 1259 0 
L 628 0 
L 628 4666 
L 2053 4666 
Q 2853 4666 3247 4331 
Q 3641 3997 3641 3322 
Q 3641 2881 3436 2590 
Q 3231 2300 2841 2188 
z
M 1259 4147 
L 1259 2491 
L 2053 2491 
Q 2509 2491 2742 2702 
Q 2975 2913 2975 3322 
Q 2975 3731 2742 3939 
Q 2509 4147 2053 4147 
L 1259 4147 
z
" transform="scale(0.015625)"/>
      </defs>
      <use xlink:href="#DejaVuSans-46"/>
      <use xlink:href="#DejaVuSans-61" x="48.394531"/>
      <use xlink:href="#DejaVuSans-6c" x="109.673828"/>
      <use xlink:href="#DejaVuSans-73" x="137.457031"/>
      <use xlink:href="#DejaVuSans-65" x="189.556641"/>
      <use xlink:href="#DejaVuSans-20" x="251.080078"/>
      <use xlink:href="#DejaVuSans-50" x="282.867188"/>
      <use xlink:href="#DejaVuSans-6f" x="339.544922"/>
      <use xlink:href="#DejaVuSans-73" x="400.726562"/>
      <use xlink:href="#DejaVuSans-69" x="452.826172"/>
      <use xlink:href="#DejaVuSans-74" x="480.609375"/>
      <use xlink:href="#DejaVuSans-69" x="519.818359"/>
      <use xlink:href="#DejaVuSans-76" x="547.601562"/>
      <use xlink:href="#DejaVuSans-65" x="606.78125"/>
      <use xlink:href="#DejaVuSans-20" x="668.304688"/>
      <use xlink:href="#DejaVuSans-52" x="700.091797"/>
      <use xlink:href="#DejaVuSans-61" x="767.324219"/>
      <use xlink:href="#DejaVuSans-74" x="828.603516"/>
      <use xlink:href="#DejaVuSans-65" x="867.8125"/>
     </g>
    </g>
   </g>
   <g id="matplotlib.axis_2">
    <g id="ytick_1">
     <g id="line2d_7">
      <defs>
       <path id="mce9b29abb6" d="M 0 0 
L -3.5 0 
" style="stroke: #000000; stroke-width: 0.8"/>
      </defs>
      <g>
       <use xlink:href="#mce9b29abb6" x="45" y="320.4" style="stroke: #000000; stroke-width: 0.8"/>
      </g>
     </g>
     <g id="text_8">
      <!-- 0.0 -->
      <g transform="translate(18.91625 324.959063) scale(0.12 -0.12)">
       <use xlink:href="#DejaVuSans-30"/>
       <use xlink:href="#DejaVuSans-2e" x="63.623047"/>
       <use xlink:href="#DejaVuSans-30" x="95.410156"/>
      </g>
     </g>
    </g>
    <g id="ytick_2">
     <g id="line2d_8">
      <g>
       <use xlink:href="#mce9b29abb6" x="45" y="264.96" style="stroke: #000000; stroke-width: 0.8"/>
      </g>
     </g>
     <g id="text_9">
      <!-- 0.2 -->
      <g transform="translate(18.91625 269.519063) scale(0.12 -0.12)">
       <use xlink:href="#DejaVuSans-30"/>
       <use xlink:href="#DejaVuSans-2e" x="63.623047"/>
       <use xlink:href="#DejaVuSans-32" x="95.410156"/>
      </g>
     </g>
    </g>
    <g id="ytick_3">
     <g id="line2d_9">
      <g>
       <use xlink:href="#mce9b29abb6" x="45" y="209.52" style="stroke: #000000; stroke-width: 0.8"/>
      </g>
     </g>
     <g id="text_10">
      <!-- 0.4 -->
      <g transform="translate(18.91625 214.079062) scale(0.12 -0.12)">
       <use xlink:href="#DejaVuSans-30"/>
       <use xlink:href="#DejaVuSans-2e" x="63.623047"/>
       <use xlink:href="#DejaVuSans-34" x="95.410156"/>
      </g>
     </g>
    </g>
    <g id="ytick_4">
     <g id="line2d_10">
      <g>
       <use xlink:href="#mce9b29abb6" x="45" y="154.08" style="stroke: #000000; stroke-width: 0.8"/>
      </g>
     </g>
     <g id="text_11">
      <!-- 0.6 -->
      <g transform="translate(18.91625 158.639062) scale(0.12 -0.12)">
       <use xlink:href="#DejaVuSans-30"/>
       <use xlink:href="#DejaVuSans-2e" x="63.623047"/>
       <use xlink:href="#DejaVuSans-36" x="95.410156"/>
      </g>
     </g>
    </g>
    <g id="ytick_5">
     <g id="line2d_11">
      <g>
       <use xlink:href="#mce9b29abb6" x="45" y="98.64" style="stroke: #000000; stroke-width: 0.8"/>
      </g>
     </g>
     <g id="text_12">
      <!-- 0.8 -->
      <g transform="translate(18.91625 103.199062) scale(0.12 -0.12)">
       <use xlink:href="#DejaVuSans-30"/>
       <use xlink:href="#DejaVuSans-2e" x="63.623047"/>
       <use xlink:href="#DejaVuSans-38" x="95.410156"/>
      </g>
     </g>
    </g>
    <g id="ytick_6">
     <g id="line2d_12">
      <g>
       <use xlink:href="#mce9b29abb6" x="45" y="43.2" style="stroke: #000000; stroke-width: 0.8"/>
      </g>
     </g>
     <g id="text_13">
      <!-- 1.0 -->
      <g transform="translate(18.91625 47.759062) scale(0.12 -0.12)">
       <use xlink:href="#DejaVuSans-31"/>
       <use xlink:href="#DejaVuSans-2e" x="63.623047"/>
       <use xlink:href="#DejaVuSans-30" x="95.410156"/>
      </g>
     </g>
    </g>
    <g id="text_14">
     <!-- True Positive Rate -->
     <g transform="translate(12.420625 235.235625) rotate(-90) scale(0.12 -0.12)">
      <defs>
       <path id="DejaVuSans-54" d="M -19 4666 
L 3928 4666 
L 3928 4134 
L 2272 4134 
L 2272 0 
L 1638 0 
L 1638 4134 
L -19 4134 
L -19 4666 
z
" transform="scale(0.015625)"/>
       <path id="DejaVuSans-72" d="M 2631 2963 
Q 2534 3019 2420 3045 
Q 2306 3072 2169 3072 
Q 1681 3072 1420 2755 
Q 1159 2438 1159 1844 
L 1159 0 
L 581 0 
L 581 3500 
L 1159 3500 
L 1159 2956 
Q 1341 3275 1631 3429 
Q 1922 3584 2338 3584 
Q 2397 3584 2469 3576 
Q 2541 3569 2628 3553 
L 2631 2963 
z
" transform="scale(0.015625)"/>
       <path id="DejaVuSans-75" d="M 544 1381 
L 544 3500 
L 1119 3500 
L 1119 1403 
Q 1119 906 1312 657 
Q 1506 409 1894 409 
Q 2359 409 2629 706 
Q 2900 1003 2900 1516 
L 2900 3500 
L 3475 3500 
L 3475 0 
L 2900 0 
L 2900 538 
Q 2691 219 2414 64 
Q 2138 -91 1772 -91 
Q 1169 -91 856 284 
Q 544 659 544 1381 
z
M 1991 3584 
L 1991 3584 
z
" transform="scale(0.015625)"/>
      </defs>
      <use xlink:href="#DejaVuSans-54"/>
      <use xlink:href="#DejaVuSans-72" x="46.333984"/>
      <use xlink:href="#DejaVuSans-75" x="87.447266"/>
      <use xlink:href="#DejaVuSans-65" x="150.826172"/>
      <use xlink:href="#DejaVuSans-20" x="212.349609"/>
      <use xlink:href="#DejaVuSans-50" x="244.136719"/>
      <use xlink:href="#DejaVuSans-6f" x="300.814453"/>
      <use xlink:href="#DejaVuSans-73" x="361.996094"/>
      <use xlink:href="#DejaVuSans-69" x="414.095703"/>
      <use xlink:href="#DejaVuSans-74" x="441.878906"/>
      <use xlink:href="#DejaVuSans-69" x="481.087891"/>
      <use xlink:href="#DejaVuSans-76" x="508.871094"/>
      <use xlink:href="#DejaVuSans-65" x="568.050781"/>
      <use xlink:href="#DejaVuSans-20" x="629.574219"/>
      <use xlink:href="#DejaVuSans-52" x="661.361328"/>
      <use xlink:href="#DejaVuSans-61" x="728.59375"/>
      <use xlink:href="#DejaVuSans-74" x="789.873047"/>
      <use xlink:href="#DejaVuSans-65" x="829.082031"/>
     </g>
    </g>
   </g>
   <g id="line2d_13">
    <path d="M 45 320.4 
L 45 305 
L 45 274.2 
L 45 243.4 
L 45 228 
L 45 197.2 
L 45 181.8 
L 45 151 
L 45 43.2 
L 179.333333 43.2 
L 189.666667 43.2 
L 324 43.2 
" clip-path="url(#p9fbe2ddaaf)" style="fill: none; stroke: #f898cb; stroke-width: 2; stroke-linecap: square"/>
   </g>
   <g id="line2d_14">
    <path d="M 45 320.4 
L 45 305 
L 45 166.4 
L 55.333333 166.4 
L 55.333333 151 
L 70.833333 151 
L 70.833333 135.6 
L 81.166667 135.6 
L 81.166667 120.2 
L 107 120.2 
L 107 104.8 
L 184.5 104.8 
L 184.5 89.4 
L 194.833333 89.4 
L 205.166667 89.4 
L 231 89.4 
L 241.333333 89.4 
L 251.666667 89.4 
L 272.333333 89.4 
L 293 89.4 
L 293 58.6 
L 298.166667 58.6 
L 298.166667 43.2 
L 324 43.2 
" clip-path="url(#p9fbe2ddaaf)" style="fill: none; stroke: #ffcb5b; stroke-width: 2; stroke-linecap: square"/>
   </g>
   <g id="line2d_15">
    <path d="M 45 320.4 
L 45 305 
L 45 197.2 
L 50.166667 197.2 
L 50.166667 181.8 
L 60.5 181.8 
L 60.5 135.6 
L 91.5 135.6 
L 91.5 120.2 
L 127.666667 120.2 
L 127.666667 58.6 
L 138 58.6 
L 138 43.2 
L 189.666667 43.2 
L 210.333333 43.2 
L 215.5 43.2 
L 225.833333 43.2 
L 256.833333 43.2 
L 267.166667 43.2 
L 324 43.2 
" clip-path="url(#p9fbe2ddaaf)" style="fill: none; stroke: #a8d3a0; stroke-width: 2; stroke-linecap: square"/>
   </g>
   <g id="line2d_16">
    <path d="M 45 320.4 
L 50.166667 320.4 
L 50.166667 305 
L 60.5 305 
L 60.5 274.2 
L 60.5 212.6 
L 70.833333 212.6 
L 70.833333 166.4 
L 76 166.4 
L 76 151 
L 81.166667 151 
L 81.166667 135.6 
L 86.333333 135.6 
L 86.333333 89.4 
L 91.5 89.4 
L 91.5 74 
L 107 74 
L 117.333333 74 
L 122.5 74 
L 132.833333 74 
L 148.333333 74 
L 148.333333 43.2 
L 189.666667 43.2 
L 200 43.2 
L 324 43.2 
" clip-path="url(#p9fbe2ddaaf)" style="fill: none; stroke: #8582bd; stroke-width: 2; stroke-linecap: square"/>
   </g>
   <g id="line2d_17">
    <path d="M 45 320.4 
L 45 316.55 
L 45 281.9 
L 46.291667 281.9 
L 46.291667 274.2 
L 47.583333 274.2 
L 47.583333 258.8 
L 48.875 258.8 
L 48.875 251.1 
L 48.875 247.25 
L 48.875 239.55 
L 48.875 224.15 
L 50.166667 224.15 
L 50.166667 216.45 
L 52.75 216.45 
L 52.75 201.05 
L 55.333333 201.05 
L 55.333333 193.35 
L 55.333333 189.5 
L 55.333333 181.8 
L 55.333333 166.4 
L 56.625 166.4 
L 56.625 162.55 
L 57.916667 162.55 
L 57.916667 154.85 
L 59.208333 154.85 
L 59.208333 151 
L 60.5 151 
L 60.5 147.15 
L 61.791667 147.15 
L 61.791667 143.3 
L 63.083333 143.3 
L 63.083333 124.05 
L 65.666667 124.05 
L 65.666667 120.2 
L 70.833333 120.2 
L 70.833333 116.35 
L 76 116.35 
L 76 108.65 
L 78.583333 108.65 
L 78.583333 89.4 
L 79.875 89.4 
L 79.875 81.7 
L 85.041667 81.7 
L 85.041667 77.85 
L 90.208333 77.85 
L 90.208333 74 
L 94.083333 74 
L 96.666667 74 
L 99.25 74 
L 99.25 70.15 
L 103.125 70.15 
L 105.708333 70.15 
L 110.875 70.15 
L 110.875 66.3 
L 117.333333 66.3 
L 117.333333 58.6 
L 128.958333 58.6 
L 131.541667 58.6 
L 134.125 58.6 
L 136.708333 58.6 
L 153.5 58.6 
L 156.083333 58.6 
L 166.416667 58.6 
L 169 58.6 
L 181.916667 58.6 
L 181.916667 54.75 
L 189.666667 54.75 
L 192.25 54.75 
L 212.916667 54.75 
L 215.5 54.75 
L 219.375 54.75 
L 221.958333 54.75 
L 246.5 54.75 
L 249.083333 54.75 
L 250.375 54.75 
L 252.958333 54.75 
L 254.25 54.75 
L 256.833333 54.75 
L 265.875 54.75 
L 265.875 50.9 
L 269.75 50.9 
L 269.75 47.05 
L 276.208333 47.05 
L 276.208333 43.2 
L 324 43.2 
" clip-path="url(#p9fbe2ddaaf)" style="fill: none; stroke-dasharray: 3,4.95; stroke-dashoffset: 0; stroke: #0076b9; stroke-width: 3"/>
   </g>
   <g id="line2d_18">
    <path d="M 45 181.8 
L 50.166667 174.1 
L 55.333333 170.25 
L 60.5 135.6 
L 70.833333 120.2 
L 76 116.35 
L 81.166667 108.65 
L 86.333333 97.1 
L 91.5 89.4 
L 107 85.55 
L 117.333333 85.55 
L 122.5 85.55 
L 127.666667 70.15 
L 132.833333 70.15 
L 138 66.3 
L 148.333333 58.6 
L 179.333333 58.6 
L 184.5 54.75 
L 189.666667 54.75 
L 194.833333 54.75 
L 200 54.75 
L 205.166667 54.75 
L 210.333333 54.75 
L 215.5 54.75 
L 225.833333 54.75 
L 231 54.75 
L 241.333333 54.75 
L 251.666667 54.75 
L 256.833333 54.75 
L 267.166667 54.75 
L 272.333333 54.75 
L 293 47.05 
L 298.166667 43.2 
L 324 43.2 
" clip-path="url(#p9fbe2ddaaf)" style="fill: none; stroke-dasharray: 3,4.95; stroke-dashoffset: 0; stroke: #d65190; stroke-width: 3"/>
   </g>
   <g id="line2d_19">
    <path d="M 45 320.4 
L 324 43.2 
" clip-path="url(#p9fbe2ddaaf)" style="fill: none; stroke-dasharray: 3.7,1.6; stroke-dashoffset: 0; stroke: #ff0000"/>
   </g>
   <g id="patch_3">
    <path d="M 45 320.4 
L 45 43.2 
" style="fill: none; stroke: #000000; stroke-width: 0.8; stroke-linejoin: miter; stroke-linecap: square"/>
   </g>
   <g id="patch_4">
    <path d="M 324 320.4 
L 324 43.2 
" style="fill: none; stroke: #000000; stroke-width: 0.8; stroke-linejoin: miter; stroke-linecap: square"/>
   </g>
   <g id="patch_5">
    <path d="M 45 320.4 
L 324 320.4 
" style="fill: none; stroke: #000000; stroke-width: 0.8; stroke-linejoin: miter; stroke-linecap: square"/>
   </g>
   <g id="patch_6">
    <path d="M 45 43.2 
L 324 43.2 
" style="fill: none; stroke: #000000; stroke-width: 0.8; stroke-linejoin: miter; stroke-linecap: square"/>
   </g>
   <g id="legend_1">
    <g id="patch_7">
     <path d="M 82.435937 315.4 
L 317 315.4 
Q 319 315.4 319 313.4 
L 319 226.33125 
Q 319 224.33125 317 224.33125 
L 82.435937 224.33125 
Q 80.435937 224.33125 80.435937 226.33125 
L 80.435937 313.4 
Q 80.435937 315.4 82.435937 315.4 
z
" style="fill: #ffffff; opacity: 0.8; stroke: #cccccc; stroke-linejoin: miter"/>
    </g>
    <g id="line2d_20">
     <path d="M 84.435937 232.429688 
L 94.435937 232.429688 
L 104.435937 232.429688 
" style="fill: none; stroke: #f898cb; stroke-width: 2; stroke-linecap: square"/>
    </g>
    <g id="text_15">
     <!-- ROC curve of class 0 (area = 1.00) -->
     <g transform="translate(112.435937 235.929688) scale(0.1 -0.1)">
      <defs>
       <path id="DejaVuSans-4f" d="M 2522 4238 
Q 1834 4238 1429 3725 
Q 1025 3213 1025 2328 
Q 1025 1447 1429 934 
Q 1834 422 2522 422 
Q 3209 422 3611 934 
Q 4013 1447 4013 2328 
Q 4013 3213 3611 3725 
Q 3209 4238 2522 4238 
z
M 2522 4750 
Q 3503 4750 4090 4092 
Q 4678 3434 4678 2328 
Q 4678 1225 4090 567 
Q 3503 -91 2522 -91 
Q 1538 -91 948 565 
Q 359 1222 359 2328 
Q 359 3434 948 4092 
Q 1538 4750 2522 4750 
z
" transform="scale(0.015625)"/>
       <path id="DejaVuSans-43" d="M 4122 4306 
L 4122 3641 
Q 3803 3938 3442 4084 
Q 3081 4231 2675 4231 
Q 1875 4231 1450 3742 
Q 1025 3253 1025 2328 
Q 1025 1406 1450 917 
Q 1875 428 2675 428 
Q 3081 428 3442 575 
Q 3803 722 4122 1019 
L 4122 359 
Q 3791 134 3420 21 
Q 3050 -91 2638 -91 
Q 1578 -91 968 557 
Q 359 1206 359 2328 
Q 359 3453 968 4101 
Q 1578 4750 2638 4750 
Q 3056 4750 3426 4639 
Q 3797 4528 4122 4306 
z
" transform="scale(0.015625)"/>
       <path id="DejaVuSans-63" d="M 3122 3366 
L 3122 2828 
Q 2878 2963 2633 3030 
Q 2388 3097 2138 3097 
Q 1578 3097 1268 2742 
Q 959 2388 959 1747 
Q 959 1106 1268 751 
Q 1578 397 2138 397 
Q 2388 397 2633 464 
Q 2878 531 3122 666 
L 3122 134 
Q 2881 22 2623 -34 
Q 2366 -91 2075 -91 
Q 1284 -91 818 406 
Q 353 903 353 1747 
Q 353 2603 823 3093 
Q 1294 3584 2113 3584 
Q 2378 3584 2631 3529 
Q 2884 3475 3122 3366 
z
" transform="scale(0.015625)"/>
       <path id="DejaVuSans-66" d="M 2375 4863 
L 2375 4384 
L 1825 4384 
Q 1516 4384 1395 4259 
Q 1275 4134 1275 3809 
L 1275 3500 
L 2222 3500 
L 2222 3053 
L 1275 3053 
L 1275 0 
L 697 0 
L 697 3053 
L 147 3053 
L 147 3500 
L 697 3500 
L 697 3744 
Q 697 4328 969 4595 
Q 1241 4863 1831 4863 
L 2375 4863 
z
" transform="scale(0.015625)"/>
       <path id="DejaVuSans-28" d="M 1984 4856 
Q 1566 4138 1362 3434 
Q 1159 2731 1159 2009 
Q 1159 1288 1364 580 
Q 1569 -128 1984 -844 
L 1484 -844 
Q 1016 -109 783 600 
Q 550 1309 550 2009 
Q 550 2706 781 3412 
Q 1013 4119 1484 4856 
L 1984 4856 
z
" transform="scale(0.015625)"/>
       <path id="DejaVuSans-3d" d="M 678 2906 
L 4684 2906 
L 4684 2381 
L 678 2381 
L 678 2906 
z
M 678 1631 
L 4684 1631 
L 4684 1100 
L 678 1100 
L 678 1631 
z
" transform="scale(0.015625)"/>
       <path id="DejaVuSans-29" d="M 513 4856 
L 1013 4856 
Q 1481 4119 1714 3412 
Q 1947 2706 1947 2009 
Q 1947 1309 1714 600 
Q 1481 -109 1013 -844 
L 513 -844 
Q 928 -128 1133 580 
Q 1338 1288 1338 2009 
Q 1338 2731 1133 3434 
Q 928 4138 513 4856 
z
" transform="scale(0.015625)"/>
      </defs>
      <use xlink:href="#DejaVuSans-52"/>
      <use xlink:href="#DejaVuSans-4f" x="69.482422"/>
      <use xlink:href="#DejaVuSans-43" x="148.193359"/>
      <use xlink:href="#DejaVuSans-20" x="218.017578"/>
      <use xlink:href="#DejaVuSans-63" x="249.804688"/>
      <use xlink:href="#DejaVuSans-75" x="304.785156"/>
      <use xlink:href="#DejaVuSans-72" x="368.164062"/>
      <use xlink:href="#DejaVuSans-76" x="409.277344"/>
      <use xlink:href="#DejaVuSans-65" x="468.457031"/>
      <use xlink:href="#DejaVuSans-20" x="529.980469"/>
      <use xlink:href="#DejaVuSans-6f" x="561.767578"/>
      <use xlink:href="#DejaVuSans-66" x="622.949219"/>
      <use xlink:href="#DejaVuSans-20" x="658.154297"/>
      <use xlink:href="#DejaVuSans-63" x="689.941406"/>
      <use xlink:href="#DejaVuSans-6c" x="744.921875"/>
      <use xlink:href="#DejaVuSans-61" x="772.705078"/>
      <use xlink:href="#DejaVuSans-73" x="833.984375"/>
      <use xlink:href="#DejaVuSans-73" x="886.083984"/>
      <use xlink:href="#DejaVuSans-20" x="938.183594"/>
      <use xlink:href="#DejaVuSans-30" x="969.970703"/>
      <use xlink:href="#DejaVuSans-20" x="1033.59375"/>
      <use xlink:href="#DejaVuSans-28" x="1065.380859"/>
      <use xlink:href="#DejaVuSans-61" x="1104.394531"/>
      <use xlink:href="#DejaVuSans-72" x="1165.673828"/>
      <use xlink:href="#DejaVuSans-65" x="1204.537109"/>
      <use xlink:href="#DejaVuSans-61" x="1266.060547"/>
      <use xlink:href="#DejaVuSans-20" x="1327.339844"/>
      <use xlink:href="#DejaVuSans-3d" x="1359.126953"/>
      <use xlink:href="#DejaVuSans-20" x="1442.916016"/>
      <use xlink:href="#DejaVuSans-31" x="1474.703125"/>
      <use xlink:href="#DejaVuSans-2e" x="1538.326172"/>
      <use xlink:href="#DejaVuSans-30" x="1570.113281"/>
      <use xlink:href="#DejaVuSans-30" x="1633.736328"/>
      <use xlink:href="#DejaVuSans-29" x="1697.359375"/>
     </g>
    </g>
    <g id="line2d_21">
     <path d="M 84.435937 247.107813 
L 94.435937 247.107813 
L 104.435937 247.107813 
" style="fill: none; stroke: #ffcb5b; stroke-width: 2; stroke-linecap: square"/>
    </g>
    <g id="text_16">
     <!-- ROC curve of class 1 (area = 0.80) -->
     <g transform="translate(112.435937 250.607813) scale(0.1 -0.1)">
      <use xlink:href="#DejaVuSans-52"/>
      <use xlink:href="#DejaVuSans-4f" x="69.482422"/>
      <use xlink:href="#DejaVuSans-43" x="148.193359"/>
      <use xlink:href="#DejaVuSans-20" x="218.017578"/>
      <use xlink:href="#DejaVuSans-63" x="249.804688"/>
      <use xlink:href="#DejaVuSans-75" x="304.785156"/>
      <use xlink:href="#DejaVuSans-72" x="368.164062"/>
      <use xlink:href="#DejaVuSans-76" x="409.277344"/>
      <use xlink:href="#DejaVuSans-65" x="468.457031"/>
      <use xlink:href="#DejaVuSans-20" x="529.980469"/>
      <use xlink:href="#DejaVuSans-6f" x="561.767578"/>
      <use xlink:href="#DejaVuSans-66" x="622.949219"/>
      <use xlink:href="#DejaVuSans-20" x="658.154297"/>
      <use xlink:href="#DejaVuSans-63" x="689.941406"/>
      <use xlink:href="#DejaVuSans-6c" x="744.921875"/>
      <use xlink:href="#DejaVuSans-61" x="772.705078"/>
      <use xlink:href="#DejaVuSans-73" x="833.984375"/>
      <use xlink:href="#DejaVuSans-73" x="886.083984"/>
      <use xlink:href="#DejaVuSans-20" x="938.183594"/>
      <use xlink:href="#DejaVuSans-31" x="969.970703"/>
      <use xlink:href="#DejaVuSans-20" x="1033.59375"/>
      <use xlink:href="#DejaVuSans-28" x="1065.380859"/>
      <use xlink:href="#DejaVuSans-61" x="1104.394531"/>
      <use xlink:href="#DejaVuSans-72" x="1165.673828"/>
      <use xlink:href="#DejaVuSans-65" x="1204.537109"/>
      <use xlink:href="#DejaVuSans-61" x="1266.060547"/>
      <use xlink:href="#DejaVuSans-20" x="1327.339844"/>
      <use xlink:href="#DejaVuSans-3d" x="1359.126953"/>
      <use xlink:href="#DejaVuSans-20" x="1442.916016"/>
      <use xlink:href="#DejaVuSans-30" x="1474.703125"/>
      <use xlink:href="#DejaVuSans-2e" x="1538.326172"/>
      <use xlink:href="#DejaVuSans-38" x="1570.113281"/>
      <use xlink:href="#DejaVuSans-30" x="1633.736328"/>
      <use xlink:href="#DejaVuSans-29" x="1697.359375"/>
     </g>
    </g>
    <g id="line2d_22">
     <path d="M 84.435937 261.785938 
L 94.435937 261.785938 
L 104.435937 261.785938 
" style="fill: none; stroke: #a8d3a0; stroke-width: 2; stroke-linecap: square"/>
    </g>
    <g id="text_17">
     <!-- ROC curve of class 2 (area = 0.90) -->
     <g transform="translate(112.435937 265.285938) scale(0.1 -0.1)">
      <defs>
       <path id="DejaVuSans-39" d="M 703 97 
L 703 672 
Q 941 559 1184 500 
Q 1428 441 1663 441 
Q 2288 441 2617 861 
Q 2947 1281 2994 2138 
Q 2813 1869 2534 1725 
Q 2256 1581 1919 1581 
Q 1219 1581 811 2004 
Q 403 2428 403 3163 
Q 403 3881 828 4315 
Q 1253 4750 1959 4750 
Q 2769 4750 3195 4129 
Q 3622 3509 3622 2328 
Q 3622 1225 3098 567 
Q 2575 -91 1691 -91 
Q 1453 -91 1209 -44 
Q 966 3 703 97 
z
M 1959 2075 
Q 2384 2075 2632 2365 
Q 2881 2656 2881 3163 
Q 2881 3666 2632 3958 
Q 2384 4250 1959 4250 
Q 1534 4250 1286 3958 
Q 1038 3666 1038 3163 
Q 1038 2656 1286 2365 
Q 1534 2075 1959 2075 
z
" transform="scale(0.015625)"/>
      </defs>
      <use xlink:href="#DejaVuSans-52"/>
      <use xlink:href="#DejaVuSans-4f" x="69.482422"/>
      <use xlink:href="#DejaVuSans-43" x="148.193359"/>
      <use xlink:href="#DejaVuSans-20" x="218.017578"/>
      <use xlink:href="#DejaVuSans-63" x="249.804688"/>
      <use xlink:href="#DejaVuSans-75" x="304.785156"/>
      <use xlink:href="#DejaVuSans-72" x="368.164062"/>
      <use xlink:href="#DejaVuSans-76" x="409.277344"/>
      <use xlink:href="#DejaVuSans-65" x="468.457031"/>
      <use xlink:href="#DejaVuSans-20" x="529.980469"/>
      <use xlink:href="#DejaVuSans-6f" x="561.767578"/>
      <use xlink:href="#DejaVuSans-66" x="622.949219"/>
      <use xlink:href="#DejaVuSans-20" x="658.154297"/>
      <use xlink:href="#DejaVuSans-63" x="689.941406"/>
      <use xlink:href="#DejaVuSans-6c" x="744.921875"/>
      <use xlink:href="#DejaVuSans-61" x="772.705078"/>
      <use xlink:href="#DejaVuSans-73" x="833.984375"/>
      <use xlink:href="#DejaVuSans-73" x="886.083984"/>
      <use xlink:href="#DejaVuSans-20" x="938.183594"/>
      <use xlink:href="#DejaVuSans-32" x="969.970703"/>
      <use xlink:href="#DejaVuSans-20" x="1033.59375"/>
      <use xlink:href="#DejaVuSans-28" x="1065.380859"/>
      <use xlink:href="#DejaVuSans-61" x="1104.394531"/>
      <use xlink:href="#DejaVuSans-72" x="1165.673828"/>
      <use xlink:href="#DejaVuSans-65" x="1204.537109"/>
      <use xlink:href="#DejaVuSans-61" x="1266.060547"/>
      <use xlink:href="#DejaVuSans-20" x="1327.339844"/>
      <use xlink:href="#DejaVuSans-3d" x="1359.126953"/>
      <use xlink:href="#DejaVuSans-20" x="1442.916016"/>
      <use xlink:href="#DejaVuSans-30" x="1474.703125"/>
      <use xlink:href="#DejaVuSans-2e" x="1538.326172"/>
      <use xlink:href="#DejaVuSans-39" x="1570.113281"/>
      <use xlink:href="#DejaVuSans-30" x="1633.736328"/>
      <use xlink:href="#DejaVuSans-29" x="1697.359375"/>
     </g>
    </g>
    <g id="line2d_23">
     <path d="M 84.435937 276.464063 
L 94.435937 276.464063 
L 104.435937 276.464063 
" style="fill: none; stroke: #8582bd; stroke-width: 2; stroke-linecap: square"/>
    </g>
    <g id="text_18">
     <!-- ROC curve of class 3 (area = 0.88) -->
     <g transform="translate(112.435937 279.964063) scale(0.1 -0.1)">
      <defs>
       <path id="DejaVuSans-33" d="M 2597 2516 
Q 3050 2419 3304 2112 
Q 3559 1806 3559 1356 
Q 3559 666 3084 287 
Q 2609 -91 1734 -91 
Q 1441 -91 1130 -33 
Q 819 25 488 141 
L 488 750 
Q 750 597 1062 519 
Q 1375 441 1716 441 
Q 2309 441 2620 675 
Q 2931 909 2931 1356 
Q 2931 1769 2642 2001 
Q 2353 2234 1838 2234 
L 1294 2234 
L 1294 2753 
L 1863 2753 
Q 2328 2753 2575 2939 
Q 2822 3125 2822 3475 
Q 2822 3834 2567 4026 
Q 2313 4219 1838 4219 
Q 1578 4219 1281 4162 
Q 984 4106 628 3988 
L 628 4550 
Q 988 4650 1302 4700 
Q 1616 4750 1894 4750 
Q 2613 4750 3031 4423 
Q 3450 4097 3450 3541 
Q 3450 3153 3228 2886 
Q 3006 2619 2597 2516 
z
" transform="scale(0.015625)"/>
      </defs>
      <use xlink:href="#DejaVuSans-52"/>
      <use xlink:href="#DejaVuSans-4f" x="69.482422"/>
      <use xlink:href="#DejaVuSans-43" x="148.193359"/>
      <use xlink:href="#DejaVuSans-20" x="218.017578"/>
      <use xlink:href="#DejaVuSans-63" x="249.804688"/>
      <use xlink:href="#DejaVuSans-75" x="304.785156"/>
      <use xlink:href="#DejaVuSans-72" x="368.164062"/>
      <use xlink:href="#DejaVuSans-76" x="409.277344"/>
      <use xlink:href="#DejaVuSans-65" x="468.457031"/>
      <use xlink:href="#DejaVuSans-20" x="529.980469"/>
      <use xlink:href="#DejaVuSans-6f" x="561.767578"/>
      <use xlink:href="#DejaVuSans-66" x="622.949219"/>
      <use xlink:href="#DejaVuSans-20" x="658.154297"/>
      <use xlink:href="#DejaVuSans-63" x="689.941406"/>
      <use xlink:href="#DejaVuSans-6c" x="744.921875"/>
      <use xlink:href="#DejaVuSans-61" x="772.705078"/>
      <use xlink:href="#DejaVuSans-73" x="833.984375"/>
      <use xlink:href="#DejaVuSans-73" x="886.083984"/>
      <use xlink:href="#DejaVuSans-20" x="938.183594"/>
      <use xlink:href="#DejaVuSans-33" x="969.970703"/>
      <use xlink:href="#DejaVuSans-20" x="1033.59375"/>
      <use xlink:href="#DejaVuSans-28" x="1065.380859"/>
      <use xlink:href="#DejaVuSans-61" x="1104.394531"/>
      <use xlink:href="#DejaVuSans-72" x="1165.673828"/>
      <use xlink:href="#DejaVuSans-65" x="1204.537109"/>
      <use xlink:href="#DejaVuSans-61" x="1266.060547"/>
      <use xlink:href="#DejaVuSans-20" x="1327.339844"/>
      <use xlink:href="#DejaVuSans-3d" x="1359.126953"/>
      <use xlink:href="#DejaVuSans-20" x="1442.916016"/>
      <use xlink:href="#DejaVuSans-30" x="1474.703125"/>
      <use xlink:href="#DejaVuSans-2e" x="1538.326172"/>
      <use xlink:href="#DejaVuSans-38" x="1570.113281"/>
      <use xlink:href="#DejaVuSans-38" x="1633.736328"/>
      <use xlink:href="#DejaVuSans-29" x="1697.359375"/>
     </g>
    </g>
    <g id="line2d_24">
     <path d="M 84.435937 291.142188 
L 94.435937 291.142188 
L 104.435937 291.142188 
" style="fill: none; stroke-dasharray: 3,4.95; stroke-dashoffset: 0; stroke: #0076b9; stroke-width: 3"/>
    </g>
    <g id="text_19">
     <!-- micro-average ROC curve (area = 0.91) -->
     <g transform="translate(112.435937 294.642188) scale(0.1 -0.1)">
      <defs>
       <path id="DejaVuSans-6d" d="M 3328 2828 
Q 3544 3216 3844 3400 
Q 4144 3584 4550 3584 
Q 5097 3584 5394 3201 
Q 5691 2819 5691 2113 
L 5691 0 
L 5113 0 
L 5113 2094 
Q 5113 2597 4934 2840 
Q 4756 3084 4391 3084 
Q 3944 3084 3684 2787 
Q 3425 2491 3425 1978 
L 3425 0 
L 2847 0 
L 2847 2094 
Q 2847 2600 2669 2842 
Q 2491 3084 2119 3084 
Q 1678 3084 1418 2786 
Q 1159 2488 1159 1978 
L 1159 0 
L 581 0 
L 581 3500 
L 1159 3500 
L 1159 2956 
Q 1356 3278 1631 3431 
Q 1906 3584 2284 3584 
Q 2666 3584 2933 3390 
Q 3200 3197 3328 2828 
z
" transform="scale(0.015625)"/>
       <path id="DejaVuSans-2d" d="M 313 2009 
L 1997 2009 
L 1997 1497 
L 313 1497 
L 313 2009 
z
" transform="scale(0.015625)"/>
       <path id="DejaVuSans-67" d="M 2906 1791 
Q 2906 2416 2648 2759 
Q 2391 3103 1925 3103 
Q 1463 3103 1205 2759 
Q 947 2416 947 1791 
Q 947 1169 1205 825 
Q 1463 481 1925 481 
Q 2391 481 2648 825 
Q 2906 1169 2906 1791 
z
M 3481 434 
Q 3481 -459 3084 -895 
Q 2688 -1331 1869 -1331 
Q 1566 -1331 1297 -1286 
Q 1028 -1241 775 -1147 
L 775 -588 
Q 1028 -725 1275 -790 
Q 1522 -856 1778 -856 
Q 2344 -856 2625 -561 
Q 2906 -266 2906 331 
L 2906 616 
Q 2728 306 2450 153 
Q 2172 0 1784 0 
Q 1141 0 747 490 
Q 353 981 353 1791 
Q 353 2603 747 3093 
Q 1141 3584 1784 3584 
Q 2172 3584 2450 3431 
Q 2728 3278 2906 2969 
L 2906 3500 
L 3481 3500 
L 3481 434 
z
" transform="scale(0.015625)"/>
      </defs>
      <use xlink:href="#DejaVuSans-6d"/>
      <use xlink:href="#DejaVuSans-69" x="97.412109"/>
      <use xlink:href="#DejaVuSans-63" x="125.195312"/>
      <use xlink:href="#DejaVuSans-72" x="180.175781"/>
      <use xlink:href="#DejaVuSans-6f" x="219.039062"/>
      <use xlink:href="#DejaVuSans-2d" x="282.095703"/>
      <use xlink:href="#DejaVuSans-61" x="318.179688"/>
      <use xlink:href="#DejaVuSans-76" x="379.458984"/>
      <use xlink:href="#DejaVuSans-65" x="438.638672"/>
      <use xlink:href="#DejaVuSans-72" x="500.162109"/>
      <use xlink:href="#DejaVuSans-61" x="541.275391"/>
      <use xlink:href="#DejaVuSans-67" x="602.554688"/>
      <use xlink:href="#DejaVuSans-65" x="666.03125"/>
      <use xlink:href="#DejaVuSans-20" x="727.554688"/>
      <use xlink:href="#DejaVuSans-52" x="759.341797"/>
      <use xlink:href="#DejaVuSans-4f" x="828.824219"/>
      <use xlink:href="#DejaVuSans-43" x="907.535156"/>
      <use xlink:href="#DejaVuSans-20" x="977.359375"/>
      <use xlink:href="#DejaVuSans-63" x="1009.146484"/>
      <use xlink:href="#DejaVuSans-75" x="1064.126953"/>
      <use xlink:href="#DejaVuSans-72" x="1127.505859"/>
      <use xlink:href="#DejaVuSans-76" x="1168.619141"/>
      <use xlink:href="#DejaVuSans-65" x="1227.798828"/>
      <use xlink:href="#DejaVuSans-20" x="1289.322266"/>
      <use xlink:href="#DejaVuSans-28" x="1321.109375"/>
      <use xlink:href="#DejaVuSans-61" x="1360.123047"/>
      <use xlink:href="#DejaVuSans-72" x="1421.402344"/>
      <use xlink:href="#DejaVuSans-65" x="1460.265625"/>
      <use xlink:href="#DejaVuSans-61" x="1521.789062"/>
      <use xlink:href="#DejaVuSans-20" x="1583.068359"/>
      <use xlink:href="#DejaVuSans-3d" x="1614.855469"/>
      <use xlink:href="#DejaVuSans-20" x="1698.644531"/>
      <use xlink:href="#DejaVuSans-30" x="1730.431641"/>
      <use xlink:href="#DejaVuSans-2e" x="1794.054688"/>
      <use xlink:href="#DejaVuSans-39" x="1825.841797"/>
      <use xlink:href="#DejaVuSans-31" x="1889.464844"/>
      <use xlink:href="#DejaVuSans-29" x="1953.087891"/>
     </g>
    </g>
    <g id="line2d_25">
     <path d="M 84.435937 305.820312 
L 94.435937 305.820312 
L 104.435937 305.820312 
" style="fill: none; stroke-dasharray: 3,4.95; stroke-dashoffset: 0; stroke: #d65190; stroke-width: 3"/>
    </g>
    <g id="text_20">
     <!-- macro-average ROC curve (area = 0.90) -->
     <g transform="translate(112.435937 309.320312) scale(0.1 -0.1)">
      <use xlink:href="#DejaVuSans-6d"/>
      <use xlink:href="#DejaVuSans-61" x="97.412109"/>
      <use xlink:href="#DejaVuSans-63" x="158.691406"/>
      <use xlink:href="#DejaVuSans-72" x="213.671875"/>
      <use xlink:href="#DejaVuSans-6f" x="252.535156"/>
      <use xlink:href="#DejaVuSans-2d" x="315.591797"/>
      <use xlink:href="#DejaVuSans-61" x="351.675781"/>
      <use xlink:href="#DejaVuSans-76" x="412.955078"/>
      <use xlink:href="#DejaVuSans-65" x="472.134766"/>
      <use xlink:href="#DejaVuSans-72" x="533.658203"/>
      <use xlink:href="#DejaVuSans-61" x="574.771484"/>
      <use xlink:href="#DejaVuSans-67" x="636.050781"/>
      <use xlink:href="#DejaVuSans-65" x="699.527344"/>
      <use xlink:href="#DejaVuSans-20" x="761.050781"/>
      <use xlink:href="#DejaVuSans-52" x="792.837891"/>
      <use xlink:href="#DejaVuSans-4f" x="862.320312"/>
      <use xlink:href="#DejaVuSans-43" x="941.03125"/>
      <use xlink:href="#DejaVuSans-20" x="1010.855469"/>
      <use xlink:href="#DejaVuSans-63" x="1042.642578"/>
      <use xlink:href="#DejaVuSans-75" x="1097.623047"/>
      <use xlink:href="#DejaVuSans-72" x="1161.001953"/>
      <use xlink:href="#DejaVuSans-76" x="1202.115234"/>
      <use xlink:href="#DejaVuSans-65" x="1261.294922"/>
      <use xlink:href="#DejaVuSans-20" x="1322.818359"/>
      <use xlink:href="#DejaVuSans-28" x="1354.605469"/>
      <use xlink:href="#DejaVuSans-61" x="1393.619141"/>
      <use xlink:href="#DejaVuSans-72" x="1454.898438"/>
      <use xlink:href="#DejaVuSans-65" x="1493.761719"/>
      <use xlink:href="#DejaVuSans-61" x="1555.285156"/>
      <use xlink:href="#DejaVuSans-20" x="1616.564453"/>
      <use xlink:href="#DejaVuSans-3d" x="1648.351562"/>
      <use xlink:href="#DejaVuSans-20" x="1732.140625"/>
      <use xlink:href="#DejaVuSans-30" x="1763.927734"/>
      <use xlink:href="#DejaVuSans-2e" x="1827.550781"/>
      <use xlink:href="#DejaVuSans-39" x="1859.337891"/>
      <use xlink:href="#DejaVuSans-30" x="1922.960938"/>
      <use xlink:href="#DejaVuSans-29" x="1986.583984"/>
     </g>
    </g>
   </g>
  </g>
 </g>
 <defs>
  <clipPath id="p9fbe2ddaaf">
   <rect x="45" y="43.2" width="279" height="277.2"/>
  </clipPath>
 </defs>
</svg>
